<?xml version="1.0" encoding="UTF-8" standalone="no"?>
<!DOCTYPE svg PUBLIC "-//W3C//DTD SVG 1.1//EN"
 "http://www.w3.org/Graphics/SVG/1.1/DTD/svg11.dtd">
<!-- Generated by graphviz version 11.0.0 (20240428.1522)
 -->
<!-- Title: examples/basic_dshot/basic_dshot.ino Pages: 1 -->
<svg width="163pt" height="204pt"
 viewBox="0.00 0.00 162.62 204.25" xmlns="http://www.w3.org/2000/svg" xmlns:xlink="http://www.w3.org/1999/xlink">
<g id="graph0" class="graph" transform="scale(1 1) rotate(0) translate(4 200.25)">
<title>examples/basic_dshot/basic_dshot.ino</title>
<!-- Node1 -->
<g id="Node000001" class="node">
<title>Node1</title>
<g id="a_Node000001"><a xlink:title=" ">
<polygon fill="#999999" stroke="#666666" points="154.62,-196.25 41.88,-196.25 41.88,-165.75 154.62,-165.75 154.62,-196.25"/>
<text text-anchor="start" x="49.88" y="-182.75" font-family="Helvetica,sans-Serif" font-size="10.00">examples/basic_dshot</text>
<text text-anchor="middle" x="98.25" y="-171.5" font-family="Helvetica,sans-Serif" font-size="10.00">/basic_dshot.ino</text>
</a>
</g>
</g>
<!-- Node2 -->
<g id="Node000002" class="node">
<title>Node2</title>
<g id="a_Node000002"><a xlink:href="DriveMaster_8h.html" target="_top" xlink:title="Header file for the DriveMaster class.">
<polygon fill="white" stroke="#666666" points="136.25,-129.75 60.25,-129.75 60.25,-110.5 136.25,-110.5 136.25,-129.75"/>
<text text-anchor="middle" x="98.25" y="-116.25" font-family="Helvetica,sans-Serif" font-size="10.00">DriveMaster.h</text>
</a>
</g>
</g>
<!-- Node1&#45;&gt;Node2 -->
<g id="edge1_Node000001_Node000002" class="edge">
<title>Node1&#45;&gt;Node2</title>
<g id="a_edge1_Node000001_Node000002"><a xlink:title=" ">
<path fill="none" stroke="#63b8ff" d="M98.25,-165.45C98.25,-158.21 98.25,-149.34 98.25,-141.44"/>
<polygon fill="#63b8ff" stroke="#63b8ff" points="101.75,-141.71 98.25,-131.71 94.75,-141.71 101.75,-141.71"/>
</a>
</g>
</g>
<!-- Node3 -->
<g id="Node000003" class="node">
<title>Node3</title>
<g id="a_Node000003"><a xlink:title=" ">
<polygon fill="#e0e0e0" stroke="#999999" points="56.5,-74.5 0,-74.5 0,-55.25 56.5,-55.25 56.5,-74.5"/>
<text text-anchor="middle" x="28.25" y="-61" font-family="Helvetica,sans-Serif" font-size="10.00">Arduino.h</text>
</a>
</g>
</g>
<!-- Node2&#45;&gt;Node3 -->
<g id="edge2_Node000002_Node000003" class="edge">
<title>Node2&#45;&gt;Node3</title>
<g id="a_edge2_Node000002_Node000003"><a xlink:title=" ">
<path fill="none" stroke="#63b8ff" d="M86.38,-110.09C76.16,-102.32 61.18,-90.92 48.99,-81.65"/>
<polygon fill="#63b8ff" stroke="#63b8ff" points="51.23,-78.96 41.15,-75.69 46.99,-84.53 51.23,-78.96"/>
</a>
</g>
</g>
<!-- Node4 -->
<g id="Node000004" class="node">
<title>Node4</title>
<g id="a_Node000004"><a xlink:href="dshot_8h.html" target="_top" xlink:title="Header file for the dshot class.">
<polygon fill="white" stroke="#666666" points="122,-74.5 74.5,-74.5 74.5,-55.25 122,-55.25 122,-74.5"/>
<text text-anchor="middle" x="98.25" y="-61" font-family="Helvetica,sans-Serif" font-size="10.00">dshot.h</text>
</a>
</g>
</g>
<!-- Node2&#45;&gt;Node4 -->
<g id="edge3_Node000002_Node000004" class="edge">
<title>Node2&#45;&gt;Node4</title>
<g id="a_edge3_Node000002_Node000004"><a xlink:title=" ">
<path fill="none" stroke="#63b8ff" d="M93.08,-110.33C91.67,-103.74 91.21,-94.46 91.68,-86.07"/>
<polygon fill="#63b8ff" stroke="#63b8ff" points="95.13,-86.71 92.86,-76.36 88.18,-85.87 95.13,-86.71"/>
</a>
</g>
</g>
<!-- Node4&#45;&gt;Node2 -->
<g id="edge4_Node000004_Node000002" class="edge">
<title>Node4&#45;&gt;Node2</title>
<g id="a_edge4_Node000004_Node000002"><a xlink:title=" ">
<path fill="none" stroke="#63b8ff" d="M103.46,-74.86C104.85,-81.5 105.3,-90.8 104.81,-99.17"/>
<polygon fill="#63b8ff" stroke="#63b8ff" points="101.37,-98.47 103.6,-108.83 108.31,-99.34 101.37,-98.47"/>
</a>
</g>
</g>
<!-- Node5 -->
<g id="Node000005" class="node">
<title>Node5</title>
<g id="a_Node000005"><a xlink:title=" ">
<polygon fill="#e0e0e0" stroke="#999999" points="139.62,-19.25 56.88,-19.25 56.88,0 139.62,0 139.62,-19.25"/>
<text text-anchor="middle" x="98.25" y="-5.75" font-family="Helvetica,sans-Serif" font-size="10.00">esp32&#45;hal&#45;rmt.h</text>
</a>
</g>
</g>
<!-- Node4&#45;&gt;Node5 -->
<g id="edge5_Node000004_Node000005" class="edge">
<title>Node4&#45;&gt;Node5</title>
<g id="a_edge5_Node000004_Node000005"><a xlink:title=" ">
<path fill="none" stroke="#63b8ff" d="M98.25,-55.08C98.25,-48.57 98.25,-39.42 98.25,-31.12"/>
<polygon fill="#63b8ff" stroke="#63b8ff" points="101.75,-31.12 98.25,-21.12 94.75,-31.12 101.75,-31.12"/>
</a>
</g>
</g>
</g>
</svg>
