<?xml version="1.0" encoding="UTF-8" standalone="no"?>
<!DOCTYPE svg PUBLIC "-//W3C//DTD SVG 1.1//EN"
 "http://www.w3.org/Graphics/SVG/1.1/DTD/svg11.dtd">
<!-- Generated by graphviz version 12.1.2 (20240928.0832)
 -->
<!-- Title: examples/basic_dshot/basic_dshot.ino Pages: 1 -->
<svg width="207pt" height="149pt"
 viewBox="0.00 0.00 206.62 149.00" xmlns="http://www.w3.org/2000/svg" xmlns:xlink="http://www.w3.org/1999/xlink">
<g id="graph0" class="graph" transform="scale(1 1) rotate(0) translate(4 145)">
<title>examples/basic_dshot/basic_dshot.ino</title>
<!-- Node1 -->
<g id="Node000001" class="node">
<title>Node1</title>
<g id="a_Node000001"><a xlink:title=" ">
<polygon fill="#999999" stroke="#666666" points="154.62,-141 41.88,-141 41.88,-110.5 154.62,-110.5 154.62,-141"/>
<text text-anchor="start" x="49.88" y="-127.5" font-family="Helvetica,sans-Serif" font-size="10.00">examples/basic_dshot</text>
<text text-anchor="middle" x="98.25" y="-116.25" font-family="Helvetica,sans-Serif" font-size="10.00">/basic_dshot.ino</text>
</a>
</g>
</g>
<!-- Node2 -->
<g id="Node000002" class="node">
<title>Node2</title>
<g id="a_Node000002"><a xlink:href="DriveMaster_8h.html" target="_top" xlink:title="Header file for the DriveMaster class.">
<polygon fill="white" stroke="#666666" points="136.25,-74.5 60.25,-74.5 60.25,-55.25 136.25,-55.25 136.25,-74.5"/>
<text text-anchor="middle" x="98.25" y="-61" font-family="Helvetica,sans-Serif" font-size="10.00">DriveMaster.h</text>
</a>
</g>
</g>
<!-- Node1&#45;&gt;Node2 -->
<g id="edge1_Node000001_Node000002" class="edge">
<title>Node1&#45;&gt;Node2</title>
<g id="a_edge1_Node000001_Node000002"><a xlink:title=" ">
<path fill="none" stroke="#63b8ff" d="M98.25,-110.2C98.25,-102.96 98.25,-94.09 98.25,-86.19"/>
<polygon fill="#63b8ff" stroke="#63b8ff" points="101.75,-86.46 98.25,-76.46 94.75,-86.46 101.75,-86.46"/>
</a>
</g>
</g>
<!-- Node3 -->
<g id="Node000003" class="node">
<title>Node3</title>
<g id="a_Node000003"><a xlink:title=" ">
<polygon fill="#e0e0e0" stroke="#999999" points="56.5,-19.25 0,-19.25 0,0 56.5,0 56.5,-19.25"/>
<text text-anchor="middle" x="28.25" y="-5.75" font-family="Helvetica,sans-Serif" font-size="10.00">Arduino.h</text>
</a>
</g>
</g>
<!-- Node2&#45;&gt;Node3 -->
<g id="edge2_Node000002_Node000003" class="edge">
<title>Node2&#45;&gt;Node3</title>
<g id="a_edge2_Node000002_Node000003"><a xlink:title=" ">
<path fill="none" stroke="#63b8ff" d="M86.38,-54.84C76.16,-47.07 61.18,-35.67 48.99,-26.4"/>
<polygon fill="#63b8ff" stroke="#63b8ff" points="51.23,-23.71 41.15,-20.44 46.99,-29.28 51.23,-23.71"/>
</a>
</g>
</g>
<!-- Node4 -->
<g id="Node000004" class="node">
<title>Node4</title>
<g id="a_Node000004"><a xlink:href="dshot_8h.html" target="_top" xlink:title="Header file for the dshot class.">
<polygon fill="white" stroke="#666666" points="122,-19.25 74.5,-19.25 74.5,0 122,0 122,-19.25"/>
<text text-anchor="middle" x="98.25" y="-5.75" font-family="Helvetica,sans-Serif" font-size="10.00">dshot.h</text>
</a>
</g>
</g>
<!-- Node2&#45;&gt;Node4 -->
<g id="edge3_Node000002_Node000004" class="edge">
<title>Node2&#45;&gt;Node4</title>
<g id="a_edge3_Node000002_Node000004"><a xlink:title=" ">
<path fill="none" stroke="#63b8ff" d="M93.08,-55.08C91.67,-48.49 91.21,-39.21 91.68,-30.82"/>
<polygon fill="#63b8ff" stroke="#63b8ff" points="95.13,-31.46 92.86,-21.11 88.18,-30.62 95.13,-31.46"/>
</a>
</g>
</g>
<!-- Node5 -->
<g id="Node000005" class="node">
<title>Node5</title>
<g id="a_Node000005"><a xlink:href="HBridge_8h.html" target="_top" xlink:title="Header file for the HBridge class.">
<polygon fill="white" stroke="#666666" points="198.62,-19.25 139.88,-19.25 139.88,0 198.62,0 198.62,-19.25"/>
<text text-anchor="middle" x="169.25" y="-5.75" font-family="Helvetica,sans-Serif" font-size="10.00">HBridge.h</text>
</a>
</g>
</g>
<!-- Node2&#45;&gt;Node5 -->
<g id="edge5_Node000002_Node000005" class="edge">
<title>Node2&#45;&gt;Node5</title>
<g id="a_edge5_Node000002_Node000005"><a xlink:title=" ">
<path fill="none" stroke="#63b8ff" d="M105.08,-54.84C113.94,-46.96 129.09,-35.36 142.54,-26.02"/>
<polygon fill="#63b8ff" stroke="#63b8ff" points="144.33,-29.04 150.67,-20.55 140.42,-23.23 144.33,-29.04"/>
</a>
</g>
</g>
<!-- Node4&#45;&gt;Node2 -->
<g id="edge4_Node000004_Node000002" class="edge">
<title>Node4&#45;&gt;Node2</title>
<g id="a_edge4_Node000004_Node000002"><a xlink:title=" ">
<path fill="none" stroke="#63b8ff" d="M103.46,-19.61C104.85,-26.25 105.3,-35.55 104.81,-43.92"/>
<polygon fill="#63b8ff" stroke="#63b8ff" points="101.37,-43.22 103.6,-53.58 108.31,-44.09 101.37,-43.22"/>
</a>
</g>
</g>
<!-- Node5&#45;&gt;Node2 -->
<g id="edge6_Node000005_Node000002" class="edge">
<title>Node5&#45;&gt;Node2</title>
<g id="a_edge6_Node000005_Node000002"><a xlink:title=" ">
<path fill="none" stroke="#63b8ff" d="M162.57,-19.52C153.73,-27.41 138.48,-39.09 124.95,-48.49"/>
<polygon fill="#63b8ff" stroke="#63b8ff" points="123.11,-45.51 116.77,-54 127.02,-51.32 123.11,-45.51"/>
</a>
</g>
</g>
</g>
</svg>
