<?xml version="1.0" encoding="UTF-8" standalone="no"?>
<!DOCTYPE svg PUBLIC "-//W3C//DTD SVG 1.1//EN"
 "http://www.w3.org/Graphics/SVG/1.1/DTD/svg11.dtd">
<!-- Generated by graphviz version 11.0.0 (20240428.1522)
 -->
<!-- Title: src/DriveMaster.h Pages: 1 -->
<svg width="217pt" height="94pt"
 viewBox="0.00 0.00 216.62 93.75" xmlns="http://www.w3.org/2000/svg" xmlns:xlink="http://www.w3.org/1999/xlink">
<g id="graph0" class="graph" transform="scale(1 1) rotate(0) translate(4 89.75)">
<title>src/DriveMaster.h</title>
<!-- Node1 -->
<g id="Node000001" class="node">
<title>Node1</title>
<g id="a_Node000001"><a xlink:title="Header file for the DriveMaster class.">
<polygon fill="#999999" stroke="#666666" points="208.62,-85.75 116.12,-85.75 116.12,-66.5 208.62,-66.5 208.62,-85.75"/>
<text text-anchor="middle" x="162.38" y="-72.25" font-family="Helvetica,sans-Serif" font-size="10.00">src/DriveMaster.h</text>
</a>
</g>
</g>
<!-- Node2 -->
<g id="Node000002" class="node">
<title>Node2</title>
<g id="a_Node000002"><a xlink:href="basic__dshot_8ino.html" target="_top" xlink:title=" ">
<polygon fill="white" stroke="#666666" points="112.75,-30.5 0,-30.5 0,0 112.75,0 112.75,-30.5"/>
<text text-anchor="start" x="8" y="-17" font-family="Helvetica,sans-Serif" font-size="10.00">examples/basic_dshot</text>
<text text-anchor="middle" x="56.38" y="-5.75" font-family="Helvetica,sans-Serif" font-size="10.00">/basic_dshot.ino</text>
</a>
</g>
</g>
<!-- Node1&#45;&gt;Node2 -->
<g id="edge1_Node000001_Node000002" class="edge">
<title>Node1&#45;&gt;Node2</title>
<g id="a_edge1_Node000001_Node000002"><a xlink:title=" ">
<path fill="none" stroke="#63b8ff" d="M136.29,-60.64C119.93,-51.55 98.91,-39.88 82.54,-30.78"/>
<polygon fill="#63b8ff" stroke="#63b8ff" points="134.51,-63.65 144.95,-65.45 137.91,-57.53 134.51,-63.65"/>
</a>
</g>
</g>
<!-- Node3 -->
<g id="Node000003" class="node">
<title>Node3</title>
<g id="a_Node000003"><a xlink:href="dshot_8h.html" target="_top" xlink:title="Header file for the dshot class.">
<polygon fill="white" stroke="#666666" points="194.38,-24.88 130.38,-24.88 130.38,-5.63 194.38,-5.63 194.38,-24.88"/>
<text text-anchor="middle" x="162.38" y="-11.38" font-family="Helvetica,sans-Serif" font-size="10.00">src/dshot.h</text>
</a>
</g>
</g>
<!-- Node1&#45;&gt;Node3 -->
<g id="edge2_Node000001_Node000003" class="edge">
<title>Node1&#45;&gt;Node3</title>
<g id="a_edge2_Node000001_Node000003"><a xlink:title=" ">
<path fill="none" stroke="#63b8ff" d="M155.94,-55.03C155.24,-44.92 155.71,-33.17 157.35,-25.28"/>
<polygon fill="#63b8ff" stroke="#63b8ff" points="152.43,-55.21 157.17,-64.68 159.37,-54.32 152.43,-55.21"/>
</a>
</g>
</g>
<!-- Node3&#45;&gt;Node1 -->
<g id="edge3_Node000003_Node000001" class="edge">
<title>Node3&#45;&gt;Node1</title>
<g id="a_edge3_Node000003_Node000001"><a xlink:title=" ">
<path fill="none" stroke="#63b8ff" d="M168.82,-36.45C169.51,-46.57 169.03,-58.32 167.38,-66.18"/>
<polygon fill="#63b8ff" stroke="#63b8ff" points="172.32,-36.26 167.59,-26.78 165.38,-37.14 172.32,-36.26"/>
</a>
</g>
</g>
</g>
</svg>
