<?xml version="1.0" encoding="UTF-8" standalone="no"?>
<!DOCTYPE svg PUBLIC "-//W3C//DTD SVG 1.1//EN"
 "http://www.w3.org/Graphics/SVG/1.1/DTD/svg11.dtd">
<!-- Generated by graphviz version 12.1.2 (20240928.0832)
 -->
<!-- Title: src/DriveMaster.h Pages: 1 -->
<svg width="296pt" height="94pt"
 viewBox="0.00 0.00 296.38 93.75" xmlns="http://www.w3.org/2000/svg" xmlns:xlink="http://www.w3.org/1999/xlink">
<g id="graph0" class="graph" transform="scale(1 1) rotate(0) translate(4 89.75)">
<title>src/DriveMaster.h</title>
<!-- Node1 -->
<g id="Node000001" class="node">
<title>Node1</title>
<g id="a_Node000001"><a xlink:title="Header file for the DriveMaster class.">
<polygon fill="#999999" stroke="#666666" points="214.62,-85.75 122.12,-85.75 122.12,-66.5 214.62,-66.5 214.62,-85.75"/>
<text text-anchor="middle" x="168.38" y="-72.25" font-family="Helvetica,sans-Serif" font-size="10.00">src/DriveMaster.h</text>
</a>
</g>
</g>
<!-- Node2 -->
<g id="Node000002" class="node">
<title>Node2</title>
<g id="a_Node000002"><a xlink:href="basic__dshot_8ino.html" target="_top" xlink:title=" ">
<polygon fill="white" stroke="#666666" points="112.75,-30.5 0,-30.5 0,0 112.75,0 112.75,-30.5"/>
<text text-anchor="start" x="8" y="-17" font-family="Helvetica,sans-Serif" font-size="10.00">examples/basic_dshot</text>
<text text-anchor="middle" x="56.38" y="-5.75" font-family="Helvetica,sans-Serif" font-size="10.00">/basic_dshot.ino</text>
</a>
</g>
</g>
<!-- Node1&#45;&gt;Node2 -->
<g id="edge1_Node000001_Node000002" class="edge">
<title>Node1&#45;&gt;Node2</title>
<g id="a_edge1_Node000001_Node000002"><a xlink:title=" ">
<path fill="none" stroke="#63b8ff" d="M141.31,-60.9C123.95,-51.77 101.49,-39.96 84.02,-30.78"/>
<polygon fill="#63b8ff" stroke="#63b8ff" points="139.54,-63.92 150.02,-65.48 142.8,-57.73 139.54,-63.92"/>
</a>
</g>
</g>
<!-- Node3 -->
<g id="Node000003" class="node">
<title>Node3</title>
<g id="a_Node000003"><a xlink:href="HBridge_8h.html" target="_top" xlink:title="Header file for the HBridge class.">
<polygon fill="white" stroke="#666666" points="206,-24.88 130.75,-24.88 130.75,-5.63 206,-5.63 206,-24.88"/>
<text text-anchor="middle" x="168.38" y="-11.38" font-family="Helvetica,sans-Serif" font-size="10.00">src/HBridge.h</text>
</a>
</g>
</g>
<!-- Node1&#45;&gt;Node3 -->
<g id="edge2_Node000001_Node000003" class="edge">
<title>Node1&#45;&gt;Node3</title>
<g id="a_edge2_Node000001_Node000003"><a xlink:title=" ">
<path fill="none" stroke="#63b8ff" d="M161.94,-55.03C161.24,-44.92 161.71,-33.17 163.35,-25.28"/>
<polygon fill="#63b8ff" stroke="#63b8ff" points="158.43,-55.21 163.17,-64.68 165.37,-54.32 158.43,-55.21"/>
</a>
</g>
</g>
<!-- Node4 -->
<g id="Node000004" class="node">
<title>Node4</title>
<g id="a_Node000004"><a xlink:href="dshot_8h.html" target="_top" xlink:title="Header file for the dshot class.">
<polygon fill="white" stroke="#666666" points="288.38,-24.88 224.38,-24.88 224.38,-5.63 288.38,-5.63 288.38,-24.88"/>
<text text-anchor="middle" x="256.38" y="-11.38" font-family="Helvetica,sans-Serif" font-size="10.00">src/dshot.h</text>
</a>
</g>
</g>
<!-- Node1&#45;&gt;Node4 -->
<g id="edge4_Node000001_Node000004" class="edge">
<title>Node1&#45;&gt;Node4</title>
<g id="a_edge4_Node000001_Node000004"><a xlink:title=" ">
<path fill="none" stroke="#63b8ff" d="M185.6,-59.56C200.72,-48.63 222.35,-34.39 237.86,-25.28"/>
<polygon fill="#63b8ff" stroke="#63b8ff" points="183.86,-56.49 177.94,-65.28 188.05,-62.1 183.86,-56.49"/>
</a>
</g>
</g>
<!-- Node3&#45;&gt;Node1 -->
<g id="edge3_Node000003_Node000001" class="edge">
<title>Node3&#45;&gt;Node1</title>
<g id="a_edge3_Node000003_Node000001"><a xlink:title=" ">
<path fill="none" stroke="#63b8ff" d="M174.82,-36.45C175.51,-46.57 175.03,-58.32 173.38,-66.18"/>
<polygon fill="#63b8ff" stroke="#63b8ff" points="178.32,-36.26 173.59,-26.78 171.38,-37.14 178.32,-36.26"/>
</a>
</g>
</g>
<!-- Node4&#45;&gt;Node1 -->
<g id="edge5_Node000004_Node000001" class="edge">
<title>Node4&#45;&gt;Node1</title>
<g id="a_edge5_Node000004_Node000001"><a xlink:title=" ">
<path fill="none" stroke="#63b8ff" d="M239.01,-31.91C223.85,-42.87 202.22,-57.11 186.75,-66.18"/>
<polygon fill="#63b8ff" stroke="#63b8ff" points="240.77,-34.96 246.7,-26.18 236.59,-29.35 240.77,-34.96"/>
</a>
</g>
</g>
</g>
</svg>
