<?xml version="1.0" encoding="UTF-8" standalone="no"?>
<!DOCTYPE svg PUBLIC "-//W3C//DTD SVG 1.1//EN"
 "http://www.w3.org/Graphics/SVG/1.1/DTD/svg11.dtd">
<!-- Generated by graphviz version 11.0.0 (20240428.1522)
 -->
<!-- Title: src/dshot.h Pages: 1 -->
<svg width="184pt" height="138pt"
 viewBox="0.00 0.00 184.38 137.75" xmlns="http://www.w3.org/2000/svg" xmlns:xlink="http://www.w3.org/1999/xlink">
<g id="graph0" class="graph" transform="scale(1 1) rotate(0) translate(4 133.75)">
<title>src/dshot.h</title>
<!-- Node1 -->
<g id="Node000001" class="node">
<title>Node1</title>
<g id="a_Node000001"><a xlink:title="Header file for the dshot class.">
<polygon fill="#999999" stroke="#666666" points="70,-129.75 6,-129.75 6,-110.5 70,-110.5 70,-129.75"/>
<text text-anchor="middle" x="38" y="-116.25" font-family="Helvetica,sans-Serif" font-size="10.00">src/dshot.h</text>
</a>
</g>
</g>
<!-- Node2 -->
<g id="Node000002" class="node">
<title>Node2</title>
<g id="a_Node000002"><a xlink:href="DriveMaster_8h.html" target="_top" xlink:title="Header file for the DriveMaster class.">
<polygon fill="white" stroke="#666666" points="76,-74.5 0,-74.5 0,-55.25 76,-55.25 76,-74.5"/>
<text text-anchor="middle" x="38" y="-61" font-family="Helvetica,sans-Serif" font-size="10.00">DriveMaster.h</text>
</a>
</g>
</g>
<!-- Node1&#45;&gt;Node2 -->
<g id="edge1_Node000001_Node000002" class="edge">
<title>Node1&#45;&gt;Node2</title>
<g id="a_edge1_Node000001_Node000002"><a xlink:title=" ">
<path fill="none" stroke="#63b8ff" d="M32.83,-110.33C31.42,-103.74 30.96,-94.46 31.43,-86.07"/>
<polygon fill="#63b8ff" stroke="#63b8ff" points="34.88,-86.71 32.61,-76.36 27.93,-85.87 34.88,-86.71"/>
</a>
</g>
</g>
<!-- Node4 -->
<g id="Node000004" class="node">
<title>Node4</title>
<g id="a_Node000004"><a xlink:title=" ">
<polygon fill="#e0e0e0" stroke="#999999" points="176.38,-74.5 93.62,-74.5 93.62,-55.25 176.38,-55.25 176.38,-74.5"/>
<text text-anchor="middle" x="135" y="-61" font-family="Helvetica,sans-Serif" font-size="10.00">esp32&#45;hal&#45;rmt.h</text>
</a>
</g>
</g>
<!-- Node1&#45;&gt;Node4 -->
<g id="edge4_Node000001_Node000004" class="edge">
<title>Node1&#45;&gt;Node4</title>
<g id="a_edge4_Node000001_Node000004"><a xlink:title=" ">
<path fill="none" stroke="#63b8ff" d="M54.45,-110.09C69.23,-101.98 91.18,-89.93 108.43,-80.46"/>
<polygon fill="#63b8ff" stroke="#63b8ff" points="110.06,-83.56 117.14,-75.68 106.69,-77.43 110.06,-83.56"/>
</a>
</g>
</g>
<!-- Node2&#45;&gt;Node1 -->
<g id="edge3_Node000002_Node000001" class="edge">
<title>Node2&#45;&gt;Node1</title>
<g id="a_edge3_Node000002_Node000001"><a xlink:title=" ">
<path fill="none" stroke="#63b8ff" d="M43.21,-74.86C44.6,-81.5 45.05,-90.8 44.56,-99.17"/>
<polygon fill="#63b8ff" stroke="#63b8ff" points="41.12,-98.47 43.35,-108.83 48.06,-99.34 41.12,-98.47"/>
</a>
</g>
</g>
<!-- Node3 -->
<g id="Node000003" class="node">
<title>Node3</title>
<g id="a_Node000003"><a xlink:title=" ">
<polygon fill="#e0e0e0" stroke="#999999" points="66.25,-19.25 9.75,-19.25 9.75,0 66.25,0 66.25,-19.25"/>
<text text-anchor="middle" x="38" y="-5.75" font-family="Helvetica,sans-Serif" font-size="10.00">Arduino.h</text>
</a>
</g>
</g>
<!-- Node2&#45;&gt;Node3 -->
<g id="edge2_Node000002_Node000003" class="edge">
<title>Node2&#45;&gt;Node3</title>
<g id="a_edge2_Node000002_Node000003"><a xlink:title=" ">
<path fill="none" stroke="#63b8ff" d="M38,-55.08C38,-48.57 38,-39.42 38,-31.12"/>
<polygon fill="#63b8ff" stroke="#63b8ff" points="41.5,-31.12 38,-21.12 34.5,-31.12 41.5,-31.12"/>
</a>
</g>
</g>
</g>
</svg>
