<?xml version="1.0" encoding="UTF-8" standalone="no"?>
<!DOCTYPE svg PUBLIC "-//W3C//DTD SVG 1.1//EN"
 "http://www.w3.org/Graphics/SVG/1.1/DTD/svg11.dtd">
<!-- Generated by graphviz version 11.0.0 (20240428.1522)
 -->
<!-- Title: src/dshot.h Pages: 1 -->
<svg width="121pt" height="149pt"
 viewBox="0.00 0.00 120.75 149.00" xmlns="http://www.w3.org/2000/svg" xmlns:xlink="http://www.w3.org/1999/xlink">
<g id="graph0" class="graph" transform="scale(1 1) rotate(0) translate(4 145)">
<title>src/dshot.h</title>
<!-- Node1 -->
<g id="Node000001" class="node">
<title>Node1</title>
<g id="a_Node000001"><a xlink:title="Header file for the dshot class.">
<polygon fill="#999999" stroke="#666666" points="88.38,-141 24.38,-141 24.38,-121.75 88.38,-121.75 88.38,-141"/>
<text text-anchor="middle" x="56.38" y="-127.5" font-family="Helvetica,sans-Serif" font-size="10.00">src/dshot.h</text>
</a>
</g>
</g>
<!-- Node2 -->
<g id="Node000002" class="node">
<title>Node2</title>
<g id="a_Node000002"><a xlink:href="DriveMaster_8h.html" target="_top" xlink:title="Header file for the DriveMaster class.">
<polygon fill="white" stroke="#666666" points="102.62,-85.75 10.12,-85.75 10.12,-66.5 102.62,-66.5 102.62,-85.75"/>
<text text-anchor="middle" x="56.38" y="-72.25" font-family="Helvetica,sans-Serif" font-size="10.00">src/DriveMaster.h</text>
</a>
</g>
</g>
<!-- Node1&#45;&gt;Node2 -->
<g id="edge1_Node000001_Node000002" class="edge">
<title>Node1&#45;&gt;Node2</title>
<g id="a_edge1_Node000001_Node000002"><a xlink:title=" ">
<path fill="none" stroke="#63b8ff" d="M49.82,-110.42C49.33,-102.05 49.78,-92.75 51.17,-86.11"/>
<polygon fill="#63b8ff" stroke="#63b8ff" points="46.31,-110.59 51.02,-120.08 53.26,-109.72 46.31,-110.59"/>
</a>
</g>
</g>
<!-- Node2&#45;&gt;Node1 -->
<g id="edge3_Node000002_Node000001" class="edge">
<title>Node2&#45;&gt;Node1</title>
<g id="a_edge3_Node000002_Node000001"><a xlink:title=" ">
<path fill="none" stroke="#63b8ff" d="M62.95,-97.32C63.42,-105.71 62.95,-114.99 61.54,-121.58"/>
<polygon fill="#63b8ff" stroke="#63b8ff" points="66.45,-97.12 61.76,-87.61 59.5,-97.96 66.45,-97.12"/>
</a>
</g>
</g>
<!-- Node3 -->
<g id="Node000003" class="node">
<title>Node3</title>
<g id="a_Node000003"><a xlink:href="basic__dshot_8ino.html" target="_top" xlink:title=" ">
<polygon fill="white" stroke="#666666" points="112.75,-30.5 0,-30.5 0,0 112.75,0 112.75,-30.5"/>
<text text-anchor="start" x="8" y="-17" font-family="Helvetica,sans-Serif" font-size="10.00">examples/basic_dshot</text>
<text text-anchor="middle" x="56.38" y="-5.75" font-family="Helvetica,sans-Serif" font-size="10.00">/basic_dshot.ino</text>
</a>
</g>
</g>
<!-- Node2&#45;&gt;Node3 -->
<g id="edge2_Node000002_Node000003" class="edge">
<title>Node2&#45;&gt;Node3</title>
<g id="a_edge2_Node000002_Node000003"><a xlink:title=" ">
<path fill="none" stroke="#63b8ff" d="M56.38,-54.92C56.38,-46.99 56.38,-38.06 56.38,-30.78"/>
<polygon fill="#63b8ff" stroke="#63b8ff" points="52.88,-54.67 56.38,-64.67 59.88,-54.67 52.88,-54.67"/>
</a>
</g>
</g>
</g>
</svg>
