<?xml version="1.0" encoding="UTF-8" standalone="no"?>
<!DOCTYPE svg PUBLIC "-//W3C//DTD SVG 1.1//EN"
 "http://www.w3.org/Graphics/SVG/1.1/DTD/svg11.dtd">
<!-- Generated by graphviz version 12.1.2 (20240928.0832)
 -->
<!-- Title: src/dshot.h Pages: 1 -->
<svg width="150pt" height="138pt"
 viewBox="0.00 0.00 150.25 137.75" xmlns="http://www.w3.org/2000/svg" xmlns:xlink="http://www.w3.org/1999/xlink">
<g id="graph0" class="graph" transform="scale(1 1) rotate(0) translate(4 133.75)">
<title>src/dshot.h</title>
<!-- Node1 -->
<g id="Node000001" class="node">
<title>Node1</title>
<g id="a_Node000001"><a xlink:title="Header file for the dshot class.">
<polygon fill="#999999" stroke="#666666" points="136.25,-129.75 72.25,-129.75 72.25,-110.5 136.25,-110.5 136.25,-129.75"/>
<text text-anchor="middle" x="104.25" y="-116.25" font-family="Helvetica,sans-Serif" font-size="10.00">src/dshot.h</text>
</a>
</g>
</g>
<!-- Node2 -->
<g id="Node000002" class="node">
<title>Node2</title>
<g id="a_Node000002"><a xlink:href="DriveMaster_8h.html" target="_top" xlink:title="Header file for the DriveMaster class.">
<polygon fill="white" stroke="#666666" points="142.25,-74.5 66.25,-74.5 66.25,-55.25 142.25,-55.25 142.25,-74.5"/>
<text text-anchor="middle" x="104.25" y="-61" font-family="Helvetica,sans-Serif" font-size="10.00">DriveMaster.h</text>
</a>
</g>
</g>
<!-- Node1&#45;&gt;Node2 -->
<g id="edge1_Node000001_Node000002" class="edge">
<title>Node1&#45;&gt;Node2</title>
<g id="a_edge1_Node000001_Node000002"><a xlink:title=" ">
<path fill="none" stroke="#63b8ff" d="M99.08,-110.33C97.67,-103.74 97.21,-94.46 97.68,-86.07"/>
<polygon fill="#63b8ff" stroke="#63b8ff" points="101.13,-86.71 98.86,-76.36 94.18,-85.87 101.13,-86.71"/>
</a>
</g>
</g>
<!-- Node2&#45;&gt;Node1 -->
<g id="edge3_Node000002_Node000001" class="edge">
<title>Node2&#45;&gt;Node1</title>
<g id="a_edge3_Node000002_Node000001"><a xlink:title=" ">
<path fill="none" stroke="#63b8ff" d="M109.46,-74.86C110.85,-81.5 111.3,-90.8 110.81,-99.17"/>
<polygon fill="#63b8ff" stroke="#63b8ff" points="107.37,-98.47 109.6,-108.83 114.31,-99.34 107.37,-98.47"/>
</a>
</g>
</g>
<!-- Node3 -->
<g id="Node000003" class="node">
<title>Node3</title>
<g id="a_Node000003"><a xlink:title=" ">
<polygon fill="#e0e0e0" stroke="#999999" points="56.5,-19.25 0,-19.25 0,0 56.5,0 56.5,-19.25"/>
<text text-anchor="middle" x="28.25" y="-5.75" font-family="Helvetica,sans-Serif" font-size="10.00">Arduino.h</text>
</a>
</g>
</g>
<!-- Node2&#45;&gt;Node3 -->
<g id="edge2_Node000002_Node000003" class="edge">
<title>Node2&#45;&gt;Node3</title>
<g id="a_edge2_Node000002_Node000003"><a xlink:title=" ">
<path fill="none" stroke="#63b8ff" d="M91.36,-54.84C80.22,-47.04 63.88,-35.59 50.61,-26.29"/>
<polygon fill="#63b8ff" stroke="#63b8ff" points="52.64,-23.44 42.45,-20.57 48.63,-29.18 52.64,-23.44"/>
</a>
</g>
</g>
<!-- Node4 -->
<g id="Node000004" class="node">
<title>Node4</title>
<g id="a_Node000004"><a xlink:href="HBridge_8h.html" target="_top" xlink:title="Header file for the HBridge class.">
<polygon fill="white" stroke="#666666" points="133.62,-19.25 74.88,-19.25 74.88,0 133.62,0 133.62,-19.25"/>
<text text-anchor="middle" x="104.25" y="-5.75" font-family="Helvetica,sans-Serif" font-size="10.00">HBridge.h</text>
</a>
</g>
</g>
<!-- Node2&#45;&gt;Node4 -->
<g id="edge4_Node000002_Node000004" class="edge">
<title>Node2&#45;&gt;Node4</title>
<g id="a_edge4_Node000002_Node000004"><a xlink:title=" ">
<path fill="none" stroke="#63b8ff" d="M99.08,-55.08C97.67,-48.49 97.21,-39.21 97.68,-30.82"/>
<polygon fill="#63b8ff" stroke="#63b8ff" points="101.13,-31.46 98.86,-21.11 94.18,-30.62 101.13,-31.46"/>
</a>
</g>
</g>
<!-- Node4&#45;&gt;Node2 -->
<g id="edge5_Node000004_Node000002" class="edge">
<title>Node4&#45;&gt;Node2</title>
<g id="a_edge5_Node000004_Node000002"><a xlink:title=" ">
<path fill="none" stroke="#63b8ff" d="M109.46,-19.61C110.85,-26.25 111.3,-35.55 110.81,-43.92"/>
<polygon fill="#63b8ff" stroke="#63b8ff" points="107.37,-43.22 109.6,-53.58 114.31,-44.09 107.37,-43.22"/>
</a>
</g>
</g>
</g>
</svg>
