<?xml version="1.0" encoding="UTF-8" standalone="no"?>
<!DOCTYPE svg PUBLIC "-//W3C//DTD SVG 1.1//EN"
 "http://www.w3.org/Graphics/SVG/1.1/DTD/svg11.dtd">
<!-- Generated by graphviz version 12.1.2 (20240928.0832)
 -->
<!-- Title: src/HBridge.h Pages: 1 -->
<svg width="144pt" height="138pt"
 viewBox="0.00 0.00 144.25 137.75" xmlns="http://www.w3.org/2000/svg" xmlns:xlink="http://www.w3.org/1999/xlink">
<g id="graph0" class="graph" transform="scale(1 1) rotate(0) translate(4 133.75)">
<title>src/HBridge.h</title>
<!-- Node1 -->
<g id="Node000001" class="node">
<title>Node1</title>
<g id="a_Node000001"><a xlink:title="Header file for the HBridge class.">
<polygon fill="#999999" stroke="#666666" points="135.88,-129.75 60.62,-129.75 60.62,-110.5 135.88,-110.5 135.88,-129.75"/>
<text text-anchor="middle" x="98.25" y="-116.25" font-family="Helvetica,sans-Serif" font-size="10.00">src/HBridge.h</text>
</a>
</g>
</g>
<!-- Node2 -->
<g id="Node000002" class="node">
<title>Node2</title>
<g id="a_Node000002"><a xlink:href="DriveMaster_8h.html" target="_top" xlink:title="Header file for the DriveMaster class.">
<polygon fill="white" stroke="#666666" points="136.25,-74.5 60.25,-74.5 60.25,-55.25 136.25,-55.25 136.25,-74.5"/>
<text text-anchor="middle" x="98.25" y="-61" font-family="Helvetica,sans-Serif" font-size="10.00">DriveMaster.h</text>
</a>
</g>
</g>
<!-- Node1&#45;&gt;Node2 -->
<g id="edge1_Node000001_Node000002" class="edge">
<title>Node1&#45;&gt;Node2</title>
<g id="a_edge1_Node000001_Node000002"><a xlink:title=" ">
<path fill="none" stroke="#63b8ff" d="M93.08,-110.33C91.67,-103.74 91.21,-94.46 91.68,-86.07"/>
<polygon fill="#63b8ff" stroke="#63b8ff" points="95.13,-86.71 92.86,-76.36 88.18,-85.87 95.13,-86.71"/>
</a>
</g>
</g>
<!-- Node2&#45;&gt;Node1 -->
<g id="edge5_Node000002_Node000001" class="edge">
<title>Node2&#45;&gt;Node1</title>
<g id="a_edge5_Node000002_Node000001"><a xlink:title=" ">
<path fill="none" stroke="#63b8ff" d="M103.46,-74.86C104.85,-81.5 105.3,-90.8 104.81,-99.17"/>
<polygon fill="#63b8ff" stroke="#63b8ff" points="101.37,-98.47 103.6,-108.83 108.31,-99.34 101.37,-98.47"/>
</a>
</g>
</g>
<!-- Node3 -->
<g id="Node000003" class="node">
<title>Node3</title>
<g id="a_Node000003"><a xlink:title=" ">
<polygon fill="#e0e0e0" stroke="#999999" points="56.5,-19.25 0,-19.25 0,0 56.5,0 56.5,-19.25"/>
<text text-anchor="middle" x="28.25" y="-5.75" font-family="Helvetica,sans-Serif" font-size="10.00">Arduino.h</text>
</a>
</g>
</g>
<!-- Node2&#45;&gt;Node3 -->
<g id="edge2_Node000002_Node000003" class="edge">
<title>Node2&#45;&gt;Node3</title>
<g id="a_edge2_Node000002_Node000003"><a xlink:title=" ">
<path fill="none" stroke="#63b8ff" d="M86.38,-54.84C76.16,-47.07 61.18,-35.67 48.99,-26.4"/>
<polygon fill="#63b8ff" stroke="#63b8ff" points="51.23,-23.71 41.15,-20.44 46.99,-29.28 51.23,-23.71"/>
</a>
</g>
</g>
<!-- Node4 -->
<g id="Node000004" class="node">
<title>Node4</title>
<g id="a_Node000004"><a xlink:href="dshot_8h.html" target="_top" xlink:title="Header file for the dshot class.">
<polygon fill="white" stroke="#666666" points="122,-19.25 74.5,-19.25 74.5,0 122,0 122,-19.25"/>
<text text-anchor="middle" x="98.25" y="-5.75" font-family="Helvetica,sans-Serif" font-size="10.00">dshot.h</text>
</a>
</g>
</g>
<!-- Node2&#45;&gt;Node4 -->
<g id="edge3_Node000002_Node000004" class="edge">
<title>Node2&#45;&gt;Node4</title>
<g id="a_edge3_Node000002_Node000004"><a xlink:title=" ">
<path fill="none" stroke="#63b8ff" d="M93.08,-55.08C91.67,-48.49 91.21,-39.21 91.68,-30.82"/>
<polygon fill="#63b8ff" stroke="#63b8ff" points="95.13,-31.46 92.86,-21.11 88.18,-30.62 95.13,-31.46"/>
</a>
</g>
</g>
<!-- Node4&#45;&gt;Node2 -->
<g id="edge4_Node000004_Node000002" class="edge">
<title>Node4&#45;&gt;Node2</title>
<g id="a_edge4_Node000004_Node000002"><a xlink:title=" ">
<path fill="none" stroke="#63b8ff" d="M103.46,-19.61C104.85,-26.25 105.3,-35.55 104.81,-43.92"/>
<polygon fill="#63b8ff" stroke="#63b8ff" points="101.37,-43.22 103.6,-53.58 108.31,-44.09 101.37,-43.22"/>
</a>
</g>
</g>
</g>
</svg>
